<?xml version="1.0" standalone="no"?>
<!DOCTYPE svg PUBLIC "-//W3C//DTD SVG 20010904//EN"
 "http://www.w3.org/TR/2001/REC-SVG-20010904/DTD/svg10.dtd">
<svg version="1.0" xmlns="http://www.w3.org/2000/svg"
 width="600.000000pt" height="600.000000pt" viewBox="0 0 600.000000 600.000000"
 preserveAspectRatio="xMidYMid meet">
<metadata>
Created by potrace 1.11, written by Peter Selinger 2001-2013
</metadata>
<g transform="translate(0.000000,600.000000) scale(0.100000,-0.100000)"
fill="#000000" stroke="none">
<path d="M2865 5393 c-56 -5 -190 -32 -255 -51 -30 -9 -61 -17 -69 -18 -28 -5
-130 -48 -238 -101 -368 -179 -558 -441 -515 -710 27 -161 157 -391 369 -650
46 -56 83 -104 83 -108 0 -3 -28 19 -63 48 -238 201 -490 352 -654 391 -186
43 -350 -12 -514 -174 -156 -153 -278 -376 -354 -645 -64 -227 -68 -452 -11
-710 16 -74 51 -187 76 -240 68 -151 94 -203 119 -241 17 -25 31 -47 31 -50 0
-22 153 -188 219 -236 227 -170 444 -152 781 62 94 59 198 138 319 241 73 62
84 61 26 -3 -17 -18 -67 -80 -111 -138 -256 -335 -349 -569 -299 -759 36 -140
123 -264 264 -375 176 -138 409 -243 665 -298 143 -31 399 -30 536 1 141 31
190 46 292 86 424 168 677 446 654 720 -9 118 -44 211 -139 375 -46 78 -214
311 -268 370 -88 97 -85 100 17 15 309 -262 599 -412 783 -404 131 5 259 68
376 184 71 69 165 183 165 199 0 3 15 29 33 58 73 117 148 317 188 503 27 126
33 342 13 465 -15 88 -49 230 -63 265 -5 11 -21 54 -36 95 -82 221 -239 446
-385 552 -101 73 -210 109 -318 104 -162 -7 -326 -81 -572 -259 -92 -67 -90
-65 -200 -158 -69 -58 -73 -60 -46 -24 17 22 33 42 36 45 23 19 140 174 204
269 173 259 233 449 191 612 -61 236 -291 444 -650 589 -33 14 -64 25 -70 26
-5 1 -43 12 -84 24 -41 12 -83 24 -95 26 -12 2 -46 9 -76 15 -56 11 -282 19
-355 12z"/>
</g>
</svg>
